<?xml version="1.0" standalone="no"?><!-- Generator: Gravit.io --><svg xmlns="http://www.w3.org/2000/svg" xmlns:xlink="http://www.w3.org/1999/xlink" style="isolation:isolate" viewBox="0 0 500 500" width="500" height="500"><defs><clipPath id="_clipPath_ImZgoBezbllSiAx4umL02faBAor8zAap"><rect width="500" height="500"/></clipPath></defs><g clip-path="url(#_clipPath_ImZgoBezbllSiAx4umL02faBAor8zAap)"><clipPath id="_clipPath_a0YJVoc342v8mlrIRehQWNHGnGbXPeNH"><rect x="0" y="0" width="500" height="500" transform="matrix(1,0,0,1,0,0)" fill="rgb(255,255,255)"/></clipPath><g clip-path="url(#_clipPath_a0YJVoc342v8mlrIRehQWNHGnGbXPeNH)"><g id="Group"><rect x="0" y="0" width="500" height="500" transform="matrix(1,0,0,1,0,0)" fill="rgb(118,226,244)"/><path d=" M 366.277 158.98 C 366.277 158.777 366.25 158.577 366.237 158.377 C 366.227 158.207 366.227 158.03 366.203 157.863 C 366.173 157.657 366.123 157.457 366.08 157.253 C 366.043 157.093 366.027 156.927 365.983 156.763 C 365.927 156.553 365.847 156.357 365.777 156.153 C 365.727 156.007 365.683 155.853 365.623 155.713 C 365.533 155.503 365.423 155.3 365.32 155.093 C 365.26 154.973 365.203 154.84 365.133 154.72 C 365.007 154.5 364.857 154.3 364.717 154.097 C 364.647 153.997 364.59 153.893 364.523 153.8 C 364.327 153.543 364.11 153.307 363.887 153.073 C 363.853 153.037 363.823 152.997 363.787 152.963 C 363.267 152.437 362.667 151.973 362.007 151.59 L 256.193 90.493 C 253.54 88.967 250.27 88.973 247.623 90.51 L 142.493 151.603 C 142.327 151.7 142.18 151.813 142.027 151.92 C 141.873 152.023 141.71 152.113 141.567 152.227 C 141.417 152.343 141.277 152.477 141.137 152.603 C 141 152.723 140.857 152.837 140.727 152.967 C 140.593 153.103 140.473 153.253 140.35 153.397 C 140.23 153.533 140.103 153.663 140 153.803 C 139.887 153.953 139.783 154.12 139.677 154.28 C 139.583 154.427 139.473 154.57 139.387 154.72 C 139.29 154.883 139.217 155.06 139.133 155.23 C 139.053 155.393 138.96 155.543 138.897 155.71 C 138.827 155.89 138.777 156.07 138.71 156.25 C 138.653 156.42 138.583 156.587 138.537 156.76 C 138.49 156.94 138.467 157.127 138.43 157.307 C 138.39 157.49 138.34 157.67 138.317 157.857 C 138.297 158.043 138.297 158.23 138.28 158.417 C 138.267 158.6 138.243 158.787 138.243 158.973 L 137.98 285.327 C 137.97 288.387 139.603 291.213 142.25 292.747 L 248.067 353.837 C 248.067 353.837 248.07 353.837 248.07 353.84 C 249.393 354.603 250.867 354.983 252.343 354.983 C 252.707 354.983 253.08 354.96 253.447 354.913 C 253.573 354.897 253.697 354.863 253.823 354.84 C 254.063 354.797 254.3 354.757 254.537 354.697 C 254.68 354.657 254.817 354.6 254.96 354.553 C 255.173 354.483 255.39 354.423 255.6 354.34 C 255.747 354.273 255.89 354.193 256.033 354.123 C 256.223 354.033 256.423 353.95 256.603 353.843 C 256.61 353.84 256.613 353.837 256.62 353.833 C 256.623 353.833 256.63 353.833 256.633 353.827 L 361.763 292.733 C 364.393 291.207 366.007 288.4 366.013 285.36 L 366.277 159.01 L 366.277 158.993 L 366.277 158.98 L 366.277 158.98 Z " fill="rgb(48,23,129)"/><g id="Accent"><path d=" M 252.127 112.45 L 173.573 155.75 L 173.573 249.35 C 173.577 251.867 174.697 254.19 176.52 255.45 L 249.29 294.78 C 250.2 295.41 251.113 295.733 252.127 295.733 C 253.15 295.733 254.17 295.413 255.087 294.78 L 327.757 255.437 C 329.56 254.18 330.14 251.523 330.143 249.013 C 330.143 247.34 330.143 216.253 330.143 155.75 L 252.127 112.45 L 252.127 112.45 Z " fill-rule="evenodd" fill="rgb(118,226,244)" fill-opacity="0.2"/><path d=" M 252.127 112.45 C 251.873 234.453 252.087 295.457 252.763 295.457 C 253.783 295.457 254.807 295.137 255.723 294.503 L 327.757 255.437 C 329.56 254.18 330.14 251.523 330.143 249.013 C 330.143 247.34 330.143 216.347 330.143 156.033 L 252.127 112.45 L 252.127 112.45 Z " fill-rule="evenodd" fill="rgb(118,226,244)" fill-opacity="0.2"/><path d=" M 254.833 227.013 C 253.01 225.96 250.757 225.963 248.933 227.023 L 176.503 269.113 C 174.683 270.17 173.57 272.113 173.577 274.213 C 173.577 276.313 174.697 278.253 176.517 279.303 L 249.423 321.397 C 250.333 321.923 251.347 322.183 252.367 322.183 C 253.39 322.183 254.407 321.92 255.327 321.387 L 327.757 279.297 C 329.573 278.24 330.197 276.087 330.193 273.99 C 330.193 271.89 329.56 270.157 327.74 269.107 L 254.833 227.013 L 254.833 227.013 Z " fill-rule="evenodd" fill="rgb(118,226,244)" fill-opacity="0.5"/></g><g id="Group"><g transform="matrix(1,0,0,1,137,361.28)"><text transform="matrix(1,0,0,1,0,33.64)" style="font-family:&quot;Ropa Sans&quot;;font-weight:400;font-size:40px;font-style:normal;fill:#301781;stroke:none;">Odoo Operator</text></g></g></g></g></g></svg>