<?xml version="1.0" standalone="no"?><!-- Generator: Gravit.io --><svg xmlns="http://www.w3.org/2000/svg" xmlns:xlink="http://www.w3.org/1999/xlink" style="isolation:isolate" viewBox="0 0 1280 640" width="1280" height="640"><defs><clipPath id="_clipPath_HpzthKHZ4geM3dm77Ft4KurIjII1hnPO"><rect width="1280" height="640"/></clipPath></defs><g clip-path="url(#_clipPath_HpzthKHZ4geM3dm77Ft4KurIjII1hnPO)"><rect width="1280" height="640" style="fill:rgb(118,226,244)"/><g id="Group"><path d=" M 1073.974 191.05 C 1073.974 190.858 1073.95 190.668 1073.938 190.478 C 1073.928 190.317 1073.928 190.15 1073.906 189.991 C 1073.877 189.795 1073.83 189.605 1073.789 189.413 C 1073.754 189.26 1073.739 189.103 1073.696 188.949 C 1073.644 188.751 1073.569 188.564 1073.5 188.369 C 1073.452 188.232 1073.414 188.087 1073.356 187.952 C 1073.27 187.753 1073.166 187.561 1073.069 187.367 C 1073.011 187.251 1072.957 187.126 1072.892 187.011 C 1072.771 186.804 1072.631 186.613 1072.497 186.42 C 1072.431 186.327 1072.377 186.229 1072.312 186.14 C 1072.126 185.896 1071.922 185.672 1071.708 185.451 C 1071.678 185.415 1071.649 185.379 1071.615 185.346 C 1071.122 184.847 1070.553 184.407 1069.927 184.045 L 969.621 126.13 C 967.106 124.681 964.008 124.687 961.498 126.143 L 861.84 184.057 C 861.683 184.148 861.544 184.256 861.397 184.357 C 861.252 184.454 861.099 184.542 860.963 184.648 C 860.821 184.76 860.688 184.885 860.554 185.006 C 860.424 185.12 860.288 185.228 860.165 185.349 C 860.038 185.478 859.926 185.623 859.808 185.759 C 859.695 185.886 859.575 186.009 859.478 186.143 C 859.368 186.287 859.272 186.442 859.172 186.595 C 859.081 186.735 858.977 186.87 858.895 187.012 C 858.805 187.168 858.736 187.334 858.656 187.496 C 858.58 187.65 858.492 187.794 858.43 187.951 C 858.363 188.12 858.316 188.292 858.253 188.463 C 858.199 188.624 858.134 188.782 858.089 188.946 C 858.046 189.116 858.023 189.293 857.988 189.463 C 857.951 189.638 857.903 189.807 857.88 189.986 C 857.861 190.162 857.861 190.338 857.847 190.515 C 857.834 190.69 857.811 190.866 857.811 191.043 L 857.563 310.82 C 857.554 313.722 859.1 316.402 861.61 317.854 L 961.917 375.764 C 961.917 375.765 961.921 375.765 961.923 375.768 C 963.176 376.49 964.571 376.852 965.972 376.852 C 966.317 376.852 966.671 376.829 967.018 376.783 C 967.138 376.768 967.255 376.736 967.376 376.714 C 967.603 376.673 967.828 376.636 968.051 376.579 C 968.187 376.542 968.318 376.488 968.454 376.445 C 968.655 376.379 968.86 376.32 969.061 376.24 C 969.2 376.179 969.334 376.102 969.469 376.035 C 969.649 375.949 969.839 375.871 970.011 375.77 C 970.017 375.768 970.02 375.763 970.026 375.76 C 970.03 375.759 970.036 375.759 970.039 375.755 L 1069.697 317.84 C 1072.189 316.393 1073.72 313.732 1073.725 310.853 L 1073.974 191.078 L 1073.974 191.062 L 1073.974 191.05 L 1073.974 191.05 Z " fill="rgb(48,23,129)"/><g id="Accent"><path d=" M 965.768 146.942 L 891.303 187.989 L 891.303 276.715 C 891.306 279.102 892.369 281.303 894.096 282.499 L 963.078 319.78 C 963.941 320.378 964.805 320.684 965.768 320.684 C 966.737 320.684 967.705 320.382 968.574 319.78 L 1037.459 282.486 C 1039.171 281.295 1039.72 278.775 1039.723 276.396 C 1039.724 274.81 1039.724 245.341 1039.723 187.989 L 965.768 146.941 L 965.768 146.942 Z " fill-rule="evenodd" fill="rgb(118,226,244)" fill-opacity="0.2"/><path d=" M 965.768 146.942 C 965.527 262.595 965.728 320.423 966.37 320.423 C 967.337 320.423 968.306 320.12 969.175 319.519 L 1037.459 282.486 C 1039.171 281.295 1039.72 278.775 1039.723 276.396 C 1039.724 274.81 1039.724 245.431 1039.723 188.258 L 965.768 146.941 L 965.768 146.942 Z " fill-rule="evenodd" fill="rgb(118,226,244)" fill-opacity="0.2"/><path d=" M 968.333 255.542 C 966.606 254.544 964.467 254.547 962.74 255.552 L 894.079 295.451 C 892.356 296.452 891.3 298.294 891.304 300.286 C 891.306 302.277 892.369 304.114 894.094 305.11 L 963.203 345.011 C 964.066 345.511 965.029 345.757 965.993 345.757 C 966.964 345.757 967.93 345.508 968.799 345.002 L 1037.459 305.103 C 1039.181 304.102 1039.775 302.062 1039.771 300.073 C 1039.769 298.082 1039.169 296.44 1037.444 295.444 L 968.333 255.542 L 968.333 255.542 Z " fill-rule="evenodd" fill="rgb(118,226,244)" fill-opacity="0.5"/></g><g transform="matrix(0.948,0,0,0.948,856.633,382.82)"><text transform="matrix(1,0,0,1,0,33.64)" style="font-family:&quot;Ropa Sans&quot;;font-weight:400;font-size:40px;font-style:normal;fill:#301781;stroke:none;">Odoo Operator</text></g></g><g id="Group"><g id="odoo_logo"><path d=" M 312.737 299.749 C 301.963 299.749 293.228 291.014 293.228 280.24 C 293.228 269.466 301.963 260.732 312.737 260.732 C 323.511 260.732 332.246 269.466 332.246 280.24 C 332.246 291.014 323.511 299.749 312.737 299.749 Z  M 312.737 291.685 C 319.058 291.685 324.182 286.561 324.182 280.24 C 324.182 273.919 319.058 268.795 312.737 268.795 C 306.416 268.795 301.292 273.919 301.292 280.24 C 301.292 286.561 306.416 291.685 312.737 291.685 Z  M 271.899 299.749 C 261.125 299.749 252.39 291.014 252.39 280.24 C 252.39 269.466 261.125 260.732 271.899 260.732 C 282.673 260.732 291.408 269.466 291.408 280.24 C 291.408 291.014 282.673 299.749 271.899 299.749 Z  M 271.899 291.685 C 278.22 291.685 283.344 286.561 283.344 280.24 C 283.344 273.919 278.22 268.795 271.899 268.795 C 265.578 268.795 260.454 273.919 260.454 280.24 C 260.454 286.561 265.578 291.685 271.899 291.685 Z  M 250.57 279.98 C 250.57 290.888 241.832 299.749 231.059 299.749 C 220.286 299.749 211.552 290.906 211.552 279.998 C 211.552 269.09 219.486 260.732 231.059 260.732 C 235.335 260.732 239.29 261.641 242.505 264.004 L 242.506 252.691 C 242.506 250.524 244.397 248.766 246.538 248.766 C 248.678 248.766 250.57 250.525 250.57 252.691 L 250.57 279.98 Z  M 231.061 291.685 C 237.382 291.685 242.506 286.561 242.506 280.24 C 242.506 273.919 237.382 268.795 231.061 268.795 C 224.74 268.795 219.616 273.919 219.616 280.24 C 219.616 286.561 224.74 291.685 231.061 291.685 Z " fill="rgb(143,143,143)"/><path d=" M 190.223 299.749 C 179.449 299.749 170.714 291.014 170.714 280.24 C 170.714 269.466 179.449 260.732 190.223 260.732 C 200.997 260.732 209.731 269.466 209.731 280.24 C 209.731 291.014 200.997 299.749 190.223 299.749 Z  M 190.223 291.685 C 196.544 291.685 201.668 286.561 201.668 280.24 C 201.668 273.919 196.544 268.795 190.223 268.795 C 183.902 268.795 178.778 273.919 178.778 280.24 C 178.778 286.561 183.902 291.685 190.223 291.685 Z " fill="rgb(135,90,123)"/></g><g id="k8s"><g id="g3052"><path d=" M 520.902 219.854 C 519.91 219.904 518.939 220.15 518.044 220.577 L 479.052 239.208 C 477.008 240.184 475.523 242.03 475.018 244.224 L 465.398 286.074 C 464.95 288.022 465.315 290.067 466.411 291.744 C 466.542 291.946 466.684 292.143 466.835 292.332 L 493.823 325.888 C 495.238 327.647 497.384 328.671 499.653 328.671 L 542.933 328.661 C 545.201 328.662 547.347 327.64 548.763 325.883 L 575.741 292.322 C 577.157 290.562 577.688 288.259 577.183 286.064 L 567.548 244.214 C 567.043 242.02 565.558 240.174 563.514 239.198 L 524.517 220.577 C 523.392 220.039 522.149 219.791 520.902 219.854 L 520.902 219.854 Z " fill="rgb(50,108,229)"/><path d=" M 521.288 234.096 C 519.999 234.096 518.954 235.257 518.954 236.689 C 518.954 236.711 518.959 236.732 518.959 236.754 C 518.957 236.948 518.948 237.183 518.954 237.352 C 518.985 238.178 519.165 238.81 519.273 239.571 C 519.47 241.2 519.634 242.55 519.533 243.805 C 519.434 244.278 519.085 244.711 518.775 245.012 L 518.72 245.999 C 517.319 246.115 515.909 246.328 514.501 246.647 C 508.441 248.023 503.224 251.145 499.251 255.359 C 498.993 255.184 498.543 254.86 498.408 254.761 C 497.992 254.817 497.571 254.946 497.022 254.626 C 495.978 253.923 495.026 252.953 493.875 251.784 C 493.348 251.225 492.966 250.692 492.34 250.153 C 492.197 250.031 491.98 249.865 491.821 249.739 C 491.331 249.349 490.753 249.145 490.195 249.126 C 489.478 249.101 488.787 249.382 488.335 249.949 C 487.532 250.957 487.789 252.497 488.909 253.39 C 488.92 253.399 488.932 253.406 488.944 253.415 C 489.097 253.539 489.286 253.699 489.427 253.804 C 490.092 254.294 490.7 254.546 491.362 254.936 C 492.758 255.798 493.915 256.512 494.833 257.374 C 495.191 257.756 495.254 258.429 495.302 258.721 L 496.05 259.389 C 492.045 265.415 490.192 272.859 491.287 280.443 L 490.31 280.727 C 490.052 281.06 489.688 281.583 489.308 281.74 C 488.107 282.118 486.755 282.257 485.124 282.428 C 484.358 282.491 483.697 282.453 482.885 282.607 C 482.706 282.641 482.457 282.706 482.261 282.752 C 482.254 282.753 482.248 282.755 482.241 282.757 C 482.231 282.759 482.217 282.765 482.206 282.767 C 480.831 283.099 479.947 284.364 480.232 285.609 C 480.516 286.855 481.86 287.613 483.244 287.315 C 483.254 287.313 483.268 287.312 483.279 287.31 C 483.294 287.306 483.308 287.299 483.323 287.295 C 483.516 287.253 483.758 287.205 483.927 287.16 C 484.725 286.946 485.303 286.632 486.021 286.357 C 487.565 285.804 488.844 285.341 490.09 285.161 C 490.611 285.12 491.159 285.482 491.432 285.634 L 492.449 285.46 C 494.79 292.718 499.696 298.584 505.909 302.265 L 505.485 303.283 C 505.638 303.678 505.806 304.212 505.692 304.602 C 505.239 305.777 504.463 307.017 503.58 308.399 C 503.152 309.038 502.714 309.533 502.328 310.264 C 502.236 310.439 502.118 310.708 502.029 310.892 C 501.429 312.176 501.869 313.654 503.021 314.209 C 504.181 314.767 505.62 314.178 506.243 312.892 C 506.244 312.89 506.247 312.889 506.248 312.887 C 506.248 312.886 506.247 312.884 506.248 312.882 C 506.336 312.7 506.462 312.46 506.537 312.289 C 506.868 311.531 506.978 310.882 507.21 310.149 C 507.828 308.598 508.167 306.971 509.017 305.957 C 509.25 305.679 509.629 305.572 510.023 305.467 L 510.551 304.509 C 515.967 306.588 522.029 307.146 528.085 305.771 C 529.466 305.457 530.8 305.051 532.089 304.564 C 532.238 304.828 532.514 305.334 532.588 305.462 C 532.988 305.592 533.424 305.659 533.78 306.185 C 534.416 307.271 534.851 308.557 535.381 310.11 C 535.613 310.842 535.728 311.491 536.059 312.249 C 536.134 312.422 536.259 312.665 536.348 312.847 C 536.97 314.137 538.413 314.728 539.574 314.169 C 540.727 313.614 541.167 312.136 540.567 310.853 C 540.478 310.668 540.355 310.399 540.263 310.224 C 539.877 309.493 539.439 309.003 539.011 308.364 C 538.127 306.982 537.395 305.834 536.941 304.659 C 536.752 304.053 536.973 303.676 537.121 303.283 C 537.033 303.181 536.844 302.609 536.732 302.34 C 543.188 298.528 547.95 292.443 550.186 285.415 C 550.488 285.462 551.013 285.555 551.184 285.589 C 551.535 285.358 551.857 285.056 552.49 285.106 C 553.736 285.286 555.015 285.749 556.56 286.303 C 557.277 286.577 557.856 286.897 558.654 287.11 C 558.823 287.156 559.064 287.198 559.257 287.24 C 559.273 287.244 559.287 287.251 559.302 287.255 C 559.313 287.257 559.327 287.258 559.337 287.26 C 560.721 287.558 562.065 286.801 562.349 285.554 C 562.633 284.309 561.75 283.044 560.374 282.712 C 560.174 282.667 559.891 282.589 559.696 282.552 C 558.884 282.399 558.223 282.437 557.457 282.373 C 555.826 282.202 554.474 282.063 553.273 281.685 C 552.784 281.495 552.435 280.912 552.266 280.672 L 551.323 280.398 C 551.812 276.863 551.68 273.183 550.835 269.502 C 549.981 265.786 548.473 262.388 546.461 259.394 C 546.703 259.174 547.16 258.77 547.289 258.651 C 547.327 258.232 547.294 257.793 547.728 257.329 C 548.646 256.467 549.803 255.753 551.199 254.891 C 551.861 254.501 552.474 254.25 553.139 253.759 C 553.289 253.648 553.494 253.472 553.652 253.345 C 554.772 252.452 555.029 250.911 554.226 249.904 C 553.422 248.896 551.864 248.801 550.745 249.694 C 550.586 249.821 550.369 249.985 550.226 250.108 C 549.6 250.647 549.213 251.18 548.685 251.739 C 547.534 252.908 546.583 253.883 545.539 254.586 C 545.086 254.85 544.423 254.759 544.122 254.741 L 543.235 255.374 C 538.173 250.067 531.282 246.673 523.861 246.014 C 523.84 245.703 523.813 245.141 523.806 244.972 C 523.502 244.681 523.135 244.433 523.043 243.805 C 522.942 242.55 523.111 241.2 523.308 239.571 C 523.416 238.81 523.596 238.178 523.627 237.352 C 523.634 237.164 523.622 236.892 523.622 236.689 C 523.622 235.257 522.577 234.096 521.288 234.096 L 521.288 234.096 Z  M 518.366 252.198 L 517.672 264.44 L 517.623 264.465 C 517.576 265.561 516.675 266.435 515.568 266.435 C 515.115 266.435 514.696 266.29 514.356 266.041 L 514.336 266.051 L 504.298 258.935 C 507.383 255.901 511.329 253.659 515.877 252.627 C 516.708 252.438 517.538 252.298 518.366 252.198 Z  M 524.215 252.198 C 529.525 252.851 534.435 255.255 538.198 258.94 L 528.225 266.011 L 528.19 265.996 C 527.304 266.643 526.057 266.482 525.367 265.617 C 525.084 265.263 524.936 264.846 524.918 264.425 L 524.908 264.42 L 524.215 252.198 Z  M 500.658 263.508 L 509.823 271.706 L 509.813 271.756 C 510.641 272.475 510.763 273.723 510.073 274.589 C 509.79 274.943 509.412 275.181 509.005 275.292 L 508.995 275.332 L 497.247 278.723 C 496.649 273.255 497.937 267.939 500.658 263.508 Z  M 541.853 263.513 C 543.215 265.72 544.247 268.186 544.861 270.858 C 545.467 273.499 545.619 276.135 545.369 278.683 L 533.56 275.282 L 533.55 275.232 C 532.493 274.943 531.843 273.867 532.089 272.788 C 532.19 272.346 532.425 271.972 532.743 271.696 L 532.738 271.671 L 541.853 263.513 L 541.853 263.513 Z  M 519.408 272.339 L 523.163 272.339 L 525.497 275.257 L 524.659 278.897 L 521.288 280.518 L 517.907 278.892 L 517.069 275.252 L 519.408 272.339 Z  M 531.446 282.323 C 531.606 282.315 531.764 282.329 531.92 282.358 L 531.94 282.333 L 544.093 284.388 C 542.314 289.384 538.911 293.713 534.363 296.61 L 529.646 285.215 L 529.661 285.195 C 529.227 284.188 529.661 283.008 530.658 282.527 C 530.913 282.405 531.18 282.336 531.446 282.323 L 531.446 282.323 Z  M 511.035 282.373 C 511.962 282.386 512.794 283.03 513.01 283.974 C 513.111 284.416 513.062 284.854 512.895 285.24 L 512.93 285.285 L 508.262 296.565 C 503.898 293.765 500.422 289.572 498.563 284.427 L 510.611 282.383 L 510.631 282.408 C 510.766 282.383 510.903 282.371 511.035 282.373 L 511.035 282.373 Z  M 521.213 287.315 C 521.536 287.303 521.864 287.369 522.176 287.519 C 522.584 287.716 522.9 288.026 523.098 288.397 L 523.143 288.397 L 529.082 299.129 C 528.311 299.387 527.519 299.608 526.709 299.792 C 522.166 300.823 517.638 300.511 513.538 299.114 L 519.463 288.402 L 519.473 288.402 C 519.828 287.737 520.502 287.341 521.213 287.315 Z " fill="rgb(255,255,255)" vector-effect="non-scaling-stroke" stroke-width="0.235" stroke="rgb(255,255,255)" stroke-linejoin="miter" stroke-linecap="butt" stroke-miterlimit="4"/></g></g><path d=" M 397.59 292.872 L 397.59 255.643 M 378.976 274.258 L 416.204 274.258" fill="none" vector-effect="non-scaling-stroke" stroke-width="10" stroke="rgb(48,23,129)" stroke-linejoin="miter" stroke-linecap="round" stroke-miterlimit="3"/></g><path d=" M 681.158 284.622 L 718.368 283.454 M 681.149 263.893 L 718.377 263.893" fill="none" vector-effect="non-scaling-stroke" stroke-width="15" stroke="rgb(0,0,0)" stroke-linejoin="miter" stroke-linecap="round" stroke-miterlimit="3"/><g transform="matrix(0.948,0,0,0.948,221.955,514.731)"><text transform="matrix(1,0,0,1,0,42.05)" style="font-family:&quot;Ropa Sans&quot;;font-weight:400;font-size:50px;font-style:italic;word-spacing:20;letter-spacing:5;fill:#301781;stroke:none;">Reified Odoo Operating Knowledge</text></g></g></svg>